<svg width="329" height="86" viewBox="0 0 329 86" fill="none" xmlns="http://www.w3.org/2000/svg">
<g clip-path="url(#clip0_1_18)">
<path d="M40.449 34.7495L52.9114 42.9493C53.3191 43.2145 53.7884 43.355 54.273 43.355C55.1269 43.355 55.9116 42.9259 56.3732 42.2003C56.7347 41.6308 56.8578 40.952 56.7193 40.2888C56.5809 39.6257 56.1962 39.0561 55.6346 38.6895L44.3108 31.2387V15.7832C44.3108 14.3866 43.1876 13.2476 41.8106 13.2476C40.4336 13.2476 39.3104 14.3866 39.3104 15.7832V32.6196C39.3104 33.4856 39.7335 34.2736 40.449 34.7495Z" fill="#3062FF"/>
<path d="M64.7045 50.9306C67.1893 45.9842 71.0896 37.0433 71.0896 29.7017C71.0896 13.3178 57.9579 0 41.8106 0C25.6633 0 12.5316 13.3178 12.5316 29.6939C12.5316 37.0433 16.4319 45.9842 18.9167 50.9228C6.8851 54.379 0 60.2148 0 66.979C0 77.652 18.3628 86.0078 41.8106 86.0078C65.2584 86.0078 83.6212 77.652 83.6212 66.979C83.6212 60.2148 76.7361 54.3868 64.7045 50.9306ZM17.532 29.7017C17.532 16.1265 28.4251 5.07902 41.8106 5.07902C55.1962 5.07902 66.0892 16.1265 66.0892 29.7017C66.0892 44.3536 48.0111 70.7083 41.8106 70.7083C39.3489 70.7083 33.4485 65.4655 27.3635 55.7365C21.3938 46.1949 17.532 35.9744 17.532 29.6939V29.7017ZM68.651 76.3023C61.5197 79.2904 51.9883 80.9366 41.8106 80.9366C31.633 80.9366 22.1015 79.2904 14.9703 76.3023C8.63137 73.6418 5.00035 70.248 5.00035 66.9868C5.00035 62.6646 11.4162 58.1785 21.3784 55.5181C21.9631 56.5323 22.5554 57.5232 23.1401 58.4594C25.6864 62.5242 34.5486 75.7873 41.8106 75.7873C49.0727 75.7873 57.9425 62.5242 60.4812 58.4594C61.0735 57.5154 61.6659 56.5245 62.2428 55.5181C72.2051 58.1785 78.6209 62.6646 78.6209 66.9868C78.6209 70.248 74.9899 73.6496 68.651 76.3023Z" fill="#3062FF"/>
<path d="M111.423 33.0097C108.746 33.0097 106.515 34.141 105.138 36.0602L105.023 33.8757C105.023 33.5402 104.8 33.3842 104.5 33.3842H101.007C100.707 33.3842 100.522 33.5714 100.522 33.8757V60.6439C100.522 60.9482 100.707 61.1354 101.007 61.1354H104.877C105.177 61.1354 105.361 60.9482 105.361 60.6439V50.5405C106.777 52.2725 108.892 53.2946 111.423 53.2946C116.924 53.2946 120.416 49.144 120.416 43.1521C120.416 37.1603 116.924 33.0097 111.423 33.0097ZM110.231 48.8475C107.146 48.8475 105.023 46.5069 105.023 43.1521C105.023 39.7973 107.138 37.4568 110.231 37.4568C113.323 37.4568 115.439 39.7973 115.439 43.1521C115.439 46.5069 113.323 48.8475 110.231 48.8475Z" fill="#3062FF"/>
<path d="M142.648 33.3842H139.156C138.856 33.3842 138.633 33.5324 138.633 33.8757L138.517 36.0602C137.14 34.141 134.909 33.0097 132.232 33.0097C126.732 33.0097 123.239 37.1603 123.239 43.1521C123.239 49.144 126.732 53.2946 132.232 53.2946C134.909 53.2946 137.14 52.1633 138.517 50.244L138.633 52.4286C138.633 52.764 138.856 52.9201 139.156 52.9201H142.648C142.948 52.9201 143.133 52.7328 143.133 52.4286V33.8757C143.133 33.5714 142.948 33.3842 142.648 33.3842ZM133.432 48.8397C130.348 48.8397 128.224 46.4991 128.224 43.1443C128.224 39.7895 130.34 37.449 133.432 37.449C136.525 37.449 138.64 39.7895 138.64 43.1443C138.64 46.4991 136.525 48.8397 133.432 48.8397Z" fill="#3062FF"/>
<path d="M159.973 33.236C159.603 33.1579 159.226 33.1267 158.673 33.1267C156.365 33.1267 154.103 34.219 152.795 36.3333L152.68 33.8835C152.68 33.548 152.457 33.392 152.157 33.392H148.664C148.364 33.392 148.18 33.5792 148.18 33.8835V52.4364C148.18 52.7406 148.364 52.9279 148.664 52.9279H152.534C152.834 52.9279 153.018 52.7406 153.018 52.4364V42.8245C153.018 39.7349 155.472 37.9249 158.073 37.9249C158.819 37.9249 159.373 38.0419 159.857 38.0731C160.188 38.1121 160.38 37.9951 160.38 37.6596V33.7743C160.38 33.509 160.265 33.3218 159.973 33.2438V33.236Z" fill="#3062FF"/>
<path d="M174.874 40.3981L181.305 33.9849C181.605 33.6807 181.451 33.3842 181.043 33.3842H176.059C175.835 33.3842 175.651 33.4622 175.466 33.6495L168.473 40.9988V25.1298C168.473 24.8255 168.289 24.6383 167.989 24.6383H164.119C163.819 24.6383 163.635 24.8255 163.635 25.1298V52.4286C163.635 52.7328 163.819 52.9201 164.119 52.9201H167.989C168.289 52.9201 168.473 52.7328 168.473 52.4286V46.7722L171.374 43.9089L176.582 52.5768C176.697 52.8031 176.882 52.9123 177.136 52.9123H181.744C182.113 52.9123 182.228 52.647 182.044 52.3115L174.866 40.3981H174.874Z" fill="#3062FF"/>
<path d="M188.144 24.4901C186.544 24.4901 185.321 25.5823 185.321 27.2051C185.321 28.8279 186.552 29.9202 188.144 29.9202C189.736 29.9202 190.967 28.8279 190.967 27.2051C190.967 25.5823 189.744 24.4901 188.144 24.4901Z" fill="#3062FF"/>
<path d="M186.213 33.3842H190.083C190.352 33.3842 190.567 33.6027 190.567 33.8757V52.4286C190.567 52.7016 190.352 52.9201 190.083 52.9201H186.213C185.944 52.9201 185.728 52.7016 185.728 52.4286V33.8757C185.728 33.6027 185.944 33.3842 186.213 33.3842Z" fill="#3062FF"/>
<path d="M206.507 33.0097C204.053 33.0097 201.637 34.0239 200.222 36.0992L200.106 33.8757C200.106 33.5402 199.883 33.3842 199.583 33.3842H196.091C195.791 33.3842 195.606 33.5714 195.606 33.8757V52.4286C195.606 52.7328 195.791 52.9201 196.091 52.9201H199.96C200.26 52.9201 200.445 52.7328 200.445 52.4286V42.9649C200.445 39.2356 202.676 37.4568 205.014 37.4568C207.545 37.4568 208.692 38.9625 208.692 42.2081V52.4286C208.692 52.7328 208.876 52.9201 209.176 52.9201H213.046C213.346 52.9201 213.53 52.7328 213.53 52.4286V40.2108C213.53 35.7248 210.969 33.0097 206.507 33.0097Z" fill="#3062FF"/>
<path d="M236.732 33.3842H233.239C232.939 33.3842 232.716 33.5324 232.716 33.8757L232.601 36.0602C231.224 34.141 228.993 33.0097 226.316 33.0097C220.815 33.0097 217.323 37.1603 217.323 43.1521C217.323 49.144 220.815 53.2946 226.316 53.2946C228.847 53.2946 230.962 52.2803 232.378 50.5405V52.3115C232.378 55.7834 229.847 57.0629 226.877 57.0629C224.277 57.0629 222.785 56.0096 221.862 54.3868C221.716 54.1216 221.492 54.0123 221.231 54.1216L218.108 55.2918C217.808 55.4011 217.7 55.5961 217.846 55.8926C219.331 59.6219 222.9 61.5099 227.031 61.5099C233.093 61.5099 237.217 58.0381 237.217 51.82V33.8757C237.217 33.5714 237.032 33.3842 236.732 33.3842ZM227.508 48.8397C224.423 48.8397 222.3 46.4991 222.3 43.1443C222.3 39.7895 224.416 37.449 227.508 37.449C230.601 37.449 232.716 39.7895 232.716 43.1443C232.716 46.4991 230.601 48.8397 227.508 48.8397Z" fill="#3062FF"/>
<path d="M263.495 48.9957L260.595 47.6772C260.295 47.529 260.072 47.6382 259.926 47.9035C259.557 48.5822 259.111 48.8475 258.48 48.8475C256.995 48.8475 256.326 47.7943 256.326 45.6799V37.761H260.895C261.195 37.761 261.38 37.5738 261.38 37.2695V33.8757C261.38 33.5714 261.195 33.3842 260.895 33.3842H256.326V28.1413C256.326 27.8371 256.141 27.6498 255.841 27.6498H251.972C251.672 27.6498 251.487 27.8371 251.487 28.1413V33.3842H248.664C248.364 33.3842 248.179 33.5714 248.179 33.8757V37.2695C248.179 37.5738 248.364 37.761 248.664 37.761H251.487V45.3757C251.487 50.6575 253.795 53.2946 257.957 53.2946C260.149 53.2946 262.272 52.3505 263.642 49.7915C263.865 49.417 263.788 49.1518 263.495 49.0035V48.9957Z" fill="#3062FF"/>
<path d="M266.834 33.3842H270.704C270.973 33.3842 271.188 33.6027 271.188 33.8757V52.4286C271.188 52.7016 270.973 52.9201 270.704 52.9201H266.834C266.565 52.9201 266.349 52.7016 266.349 52.4286V33.8757C266.349 33.6027 266.565 33.3842 266.834 33.3842Z" fill="#3062FF"/>
<path d="M268.773 24.4901C267.173 24.4901 265.949 25.5823 265.949 27.2051C265.949 28.8279 267.173 29.9202 268.773 29.9202C270.373 29.9202 271.596 28.8279 271.596 27.2051C271.596 25.5823 270.373 24.4901 268.773 24.4901Z" fill="#3062FF"/>
<path d="M299.59 33.0097C296.952 33.0097 294.421 34.219 293.013 36.5908C291.974 34.2892 289.851 33.0097 286.951 33.0097C284.574 33.0097 282.227 34.102 280.85 36.2163L280.743 33.8757C280.743 33.5402 280.52 33.3842 280.22 33.3842H276.727C276.427 33.3842 276.242 33.5714 276.242 33.8757V52.4286C276.242 52.7328 276.427 52.9201 276.727 52.9201H280.597C280.897 52.9201 281.081 52.7328 281.081 52.4286V42.9649C281.081 39.2356 283.197 37.4568 285.466 37.4568C287.736 37.4568 288.889 38.9625 288.889 42.2081V52.4286C288.889 52.7328 289.074 52.9201 289.374 52.9201H293.244C293.544 52.9201 293.728 52.7328 293.728 52.4286V42.9649C293.728 39.2356 295.844 37.4568 298.113 37.4568C300.383 37.4568 301.537 38.9625 301.537 42.2081V52.4286C301.537 52.7328 301.721 52.9201 302.021 52.9201H305.891C306.191 52.9201 306.375 52.7328 306.375 52.4286V40.2108C306.375 35.7248 303.814 33.0097 299.606 33.0097H299.59Z" fill="#3062FF"/>
<path d="M319.884 33.0097C313.822 33.0097 310.145 37.2305 310.145 43.1521C310.145 49.0738 313.822 53.2946 319.884 53.2946C323.453 53.2946 326.654 51.7498 328.361 48.317C328.508 48.0127 328.4 47.7864 328.1 47.6772L324.792 46.5069C324.53 46.4289 324.307 46.4679 324.161 46.7332C323.269 48.1999 321.892 48.9567 319.922 48.9567C317.361 48.9567 315.722 47.3339 315.276 44.6579H328.477C328.777 44.6579 328.962 44.5097 329 44.1664C329.185 37.4568 325.8 33.0097 319.892 33.0097H319.884ZM315.345 40.9988C315.938 38.6583 317.576 37.3397 319.846 37.3397C321.93 37.3397 323.377 38.6973 323.823 40.9988H315.345Z" fill="#3062FF"/>
</g>
<defs>
<clipPath id="clip0_1_18">
<rect width="329" height="86" fill="white"/>
</clipPath>
</defs>
</svg>
