<svg width="329" height="73" viewBox="0 0 329 73" fill="none" xmlns="http://www.w3.org/2000/svg">
<path d="M34.0624 29.4099L44.5571 36.3496C44.9004 36.5741 45.2956 36.693 45.7037 36.693C46.4228 36.693 47.0836 36.3298 47.4723 35.7157C47.7767 35.2337 47.8804 34.6592 47.7638 34.098C47.6472 33.5367 47.3233 33.0547 46.8504 32.7444L37.3145 26.4385V13.3579C37.3145 12.176 36.3686 11.2119 35.209 11.2119C34.0495 11.2119 33.1036 12.176 33.1036 13.3579V27.6072C33.1036 28.3402 33.4599 29.0071 34.0624 29.4099Z" fill="#3062FF"/>
<path d="M54.488 43.1045C56.5805 38.9182 59.8649 31.3511 59.8649 25.1377C59.8649 11.2713 48.8067 0 35.2089 0C21.6112 0 10.553 11.2713 10.553 25.1311C10.553 31.3511 13.8374 38.9182 15.9299 43.0979C5.79798 46.023 0 50.9621 0 56.6869C0 65.7198 15.4634 72.7916 35.2089 72.7916C54.9545 72.7916 70.4179 65.7198 70.4179 56.6869C70.4179 50.9621 64.6199 46.0296 54.488 43.1045ZM14.7638 25.1377C14.7638 13.6484 23.9369 4.29856 35.2089 4.29856C46.481 4.29856 55.6541 13.6484 55.6541 25.1377C55.6541 37.5381 40.4304 59.8431 35.2089 59.8431C33.1359 59.8431 28.1672 55.4059 23.0429 47.1719C18.0158 39.0964 14.7638 30.4465 14.7638 25.1311V25.1377ZM57.8113 64.5775C51.8061 67.1064 43.7796 68.4997 35.2089 68.4997C26.6383 68.4997 18.6118 67.1064 12.6066 64.5775C7.26853 62.3258 4.21082 59.4535 4.21082 56.6935C4.21082 53.0354 9.61363 49.2387 18.0029 46.987C18.4952 47.8454 18.994 48.684 19.4864 49.4764C21.6307 52.9165 29.0935 64.1417 35.2089 64.1417C41.3244 64.1417 48.7937 52.9165 50.9315 49.4764C51.4303 48.6774 51.9291 47.8388 52.415 46.987C60.8043 49.2387 66.2071 53.0354 66.2071 56.6935C66.2071 59.4535 63.1494 62.3324 57.8113 64.5775Z" fill="#3062FF"/>
<path d="M96.3083 25.6549C93.4453 25.6549 91.0595 26.8708 89.5868 28.9337L89.4634 26.5857C89.4634 26.2252 89.2248 26.0574 88.904 26.0574H85.1689C84.8481 26.0574 84.6506 26.2587 84.6506 26.5857V55.3564C84.6506 55.6835 84.8481 55.8847 85.1689 55.8847H89.3071C89.628 55.8847 89.8254 55.6835 89.8254 55.3564V44.4972C91.3392 46.3588 93.6016 47.4573 96.3083 47.4573C102.191 47.4573 105.926 42.9962 105.926 36.5561C105.926 30.116 102.191 25.6549 96.3083 25.6549ZM95.0331 42.6775C91.7341 42.6775 89.4634 40.1619 89.4634 36.5561C89.4634 32.9503 91.7258 30.4347 95.0331 30.4347C98.3404 30.4347 100.603 32.9503 100.603 36.5561C100.603 40.1619 98.3404 42.6775 95.0331 42.6775Z" fill="#3062FF"/>
<path d="M129.702 26.0574H125.967C125.646 26.0574 125.407 26.2168 125.407 26.5857L125.284 28.9337C123.811 26.8708 121.425 25.6549 118.562 25.6549C112.68 25.6549 108.945 30.116 108.945 36.5561C108.945 42.9962 112.68 47.4573 118.562 47.4573C121.425 47.4573 123.811 46.2414 125.284 44.1786L125.407 46.5265C125.407 46.8871 125.646 47.0548 125.967 47.0548H129.702C130.023 47.0548 130.22 46.8535 130.22 46.5265V26.5857C130.22 26.2587 130.023 26.0574 129.702 26.0574ZM119.846 42.6692C116.547 42.6692 114.276 40.1535 114.276 36.5477C114.276 32.942 116.538 30.4263 119.846 30.4263C123.153 30.4263 125.415 32.942 125.415 36.5477C125.415 40.1535 123.153 42.6692 119.846 42.6692Z" fill="#3062FF"/>
<path d="M148.229 25.8981C147.834 25.8142 147.431 25.7807 146.838 25.7807C144.37 25.7807 141.952 26.9547 140.553 29.2271L140.43 26.5941C140.43 26.2335 140.191 26.0658 139.87 26.0658H136.135C135.814 26.0658 135.617 26.2671 135.617 26.5941V46.5349C135.617 46.8619 135.814 47.0631 136.135 47.0631H140.273C140.594 47.0631 140.792 46.8619 140.792 46.5349V36.2039C140.792 32.8832 143.416 30.9378 146.197 30.9378C146.995 30.9378 147.587 31.0636 148.105 31.0971C148.459 31.139 148.665 31.0133 148.665 30.6527V26.4767C148.665 26.1916 148.541 25.9903 148.229 25.9065V25.8981Z" fill="#3062FF"/>
<path d="M164.165 33.5959L171.042 26.703C171.363 26.376 171.199 26.0573 170.763 26.0573H165.432C165.193 26.0573 164.996 26.1412 164.798 26.3424L157.32 34.2416V17.1854C157.32 16.8584 157.122 16.6571 156.801 16.6571H152.663C152.342 16.6571 152.145 16.8584 152.145 17.1854V46.5264C152.145 46.8534 152.342 47.0547 152.663 47.0547H156.801C157.122 47.0547 157.32 46.8534 157.32 46.5264V40.4469L160.421 37.3694L165.991 46.6857C166.114 46.9289 166.312 47.0463 166.583 47.0463H171.511C171.906 47.0463 172.03 46.7612 171.832 46.4006L164.156 33.5959H164.165Z" fill="#3062FF"/>
<path d="M178.356 16.4979C176.645 16.4979 175.337 17.6719 175.337 19.4161C175.337 21.1603 176.653 22.3343 178.356 22.3343C180.059 22.3343 181.375 21.1603 181.375 19.4161C181.375 17.6719 180.067 16.4979 178.356 16.4979Z" fill="#3062FF"/>
<path d="M176.291 26.0574H180.429C180.717 26.0574 180.947 26.2922 180.947 26.5857V46.5264C180.947 46.8199 180.717 47.0547 180.429 47.0547H176.291C176.003 47.0547 175.773 46.8199 175.773 46.5264V26.5857C175.773 26.2922 176.003 26.0574 176.291 26.0574Z" fill="#3062FF"/>
<path d="M197.994 25.6549C195.369 25.6549 192.786 26.7451 191.272 28.9756L191.149 26.5857C191.149 26.2252 190.91 26.0574 190.589 26.0574H186.854C186.534 26.0574 186.336 26.2587 186.336 26.5857V46.5265C186.336 46.8535 186.534 47.0548 186.854 47.0548H190.993C191.313 47.0548 191.511 46.8535 191.511 46.5265V36.3549C191.511 32.3466 193.897 30.4347 196.398 30.4347C199.104 30.4347 200.33 32.0531 200.33 35.5415V46.5265C200.33 46.8535 200.528 47.0548 200.849 47.0548H204.987C205.308 47.0548 205.505 46.8535 205.505 46.5265V33.3948C205.505 28.5731 202.765 25.6549 197.994 25.6549Z" fill="#3062FF"/>
<path d="M230.318 26.0574H226.583C226.262 26.0574 226.023 26.2168 226.023 26.5857L225.9 28.9337C224.427 26.8708 222.042 25.6549 219.179 25.6549C213.296 25.6549 209.561 30.116 209.561 36.5561C209.561 42.9962 213.296 47.4573 219.179 47.4573C221.885 47.4573 224.148 46.3672 225.661 44.4972V46.4007C225.661 50.1323 222.955 51.5075 219.779 51.5075C216.998 51.5075 215.402 50.3755 214.415 48.6313C214.259 48.3462 214.02 48.2288 213.74 48.3462L210.4 49.604C210.079 49.7214 209.964 49.931 210.121 50.2497C211.708 54.2579 215.526 56.2872 219.944 56.2872C226.426 56.2872 230.836 52.5557 230.836 45.8724V26.5857C230.836 26.2587 230.639 26.0574 230.318 26.0574ZM220.454 42.6692C217.155 42.6692 214.884 40.1535 214.884 36.5477C214.884 32.942 217.146 30.4263 220.454 30.4263C223.761 30.4263 226.023 32.942 226.023 36.5477C226.023 40.1535 223.761 42.6692 220.454 42.6692Z" fill="#3062FF"/>
<path d="M258.94 42.8368L255.838 41.4196C255.517 41.2603 255.279 41.3777 255.122 41.6628C254.727 42.3923 254.25 42.6775 253.576 42.6775C251.988 42.6775 251.272 41.5454 251.272 39.2729V30.7616H256.159C256.48 30.7616 256.677 30.5604 256.677 30.2333V26.5856C256.677 26.2586 256.48 26.0574 256.159 26.0574H251.272V20.4223C251.272 20.0953 251.075 19.894 250.754 19.894H246.616C246.295 19.894 246.097 20.0953 246.097 20.4223V26.0574H243.078C242.757 26.0574 242.56 26.2586 242.56 26.5856V30.2333C242.56 30.5604 242.757 30.7616 243.078 30.7616H246.097V38.9459C246.097 44.6229 248.565 47.4572 253.016 47.4572C255.361 47.4572 257.631 46.4426 259.096 43.6921C259.334 43.2896 259.252 43.0045 258.94 42.8452V42.8368Z" fill="#3062FF"/>
<path d="M262.51 26.0574H266.648C266.936 26.0574 267.166 26.2922 267.166 26.5857V46.5264C267.166 46.8199 266.936 47.0547 266.648 47.0547H262.51C262.222 47.0547 261.992 46.8199 261.992 46.5264V26.5857C261.992 26.2922 262.222 26.0574 262.51 26.0574Z" fill="#3062FF"/>
<path d="M264.583 16.4979C262.872 16.4979 261.564 17.6719 261.564 19.4161C261.564 21.1603 262.872 22.3343 264.583 22.3343C266.294 22.3343 267.602 21.1603 267.602 19.4161C267.602 17.6719 266.294 16.4979 264.583 16.4979Z" fill="#3062FF"/>
<path d="M297.54 25.6549C294.719 25.6549 292.012 26.9547 290.506 29.5039C289.396 27.0302 287.125 25.6549 284.024 25.6549C281.481 25.6549 278.972 26.8289 277.499 29.1014L277.384 26.5857C277.384 26.2252 277.146 26.0574 276.825 26.0574H273.09C272.769 26.0574 272.572 26.2587 272.572 26.5857V46.5265C272.572 46.8535 272.769 47.0548 273.09 47.0548H277.228C277.549 47.0548 277.746 46.8535 277.746 46.5265V36.3549C277.746 32.3466 280.009 30.4347 282.436 30.4347C284.863 30.4347 286.097 32.0531 286.097 35.5415V46.5265C286.097 46.8535 286.294 47.0548 286.615 47.0548H290.753C291.074 47.0548 291.272 46.8535 291.272 46.5265V36.3549C291.272 32.3466 293.534 30.4347 295.961 30.4347C298.388 30.4347 299.622 32.0531 299.622 35.5415V46.5265C299.622 46.8535 299.819 47.0548 300.14 47.0548H304.278C304.599 47.0548 304.797 46.8535 304.797 46.5265V33.3948C304.797 28.5731 302.057 25.6549 297.557 25.6549H297.54Z" fill="#3062FF"/>
<path d="M319.244 25.6549C312.761 25.6549 308.828 30.1915 308.828 36.5561C308.828 42.9207 312.761 47.4573 319.244 47.4573C323.061 47.4573 326.483 45.797 328.31 42.1073C328.466 41.7803 328.351 41.5371 328.03 41.4197L324.492 40.1619C324.213 40.078 323.974 40.12 323.818 40.4051C322.863 41.9815 321.391 42.7949 319.285 42.7949C316.545 42.7949 314.793 41.0508 314.316 38.1745H328.433C328.754 38.1745 328.951 38.0152 328.993 37.6462C329.19 30.4347 325.57 25.6549 319.252 25.6549H319.244ZM314.39 34.2417C315.023 31.7261 316.775 30.3089 319.202 30.3089C321.432 30.3089 322.979 31.768 323.456 34.2417H314.39Z" fill="#3062FF"/>
</svg>
