<svg width="126" height="32" viewBox="0 0 126 32" fill="none" xmlns="http://www.w3.org/2000/svg">
<path d="M3.7812 15.372C3.8899 15.6216 4.09951 15.7308 4.35572 15.6606C9.57304 14.545 13.6103 12.5399 15.5357 10.4958C17.5 12.5399 21.5372 14.5528 26.7157 15.6606C27.0029 15.7308 27.2126 15.6216 27.2902 15.372L28.2917 12.4306C28.4004 12.0718 28.2529 11.8533 28.0045 11.7831C22.1505 10.3475 17.8571 8.26445 17.8571 5.72104V5.47138H26.3197C26.607 5.47138 26.7467 5.29194 26.7467 5.04228V1.88252C26.7467 1.63286 26.607 1.41441 26.3197 1.41441H4.78274C4.46442 1.41441 4.3169 1.63286 4.3169 1.88252V5.04228C4.3169 5.29194 4.45665 5.47138 4.78274 5.47138H13.2453V5.72104C13.2453 8.27225 8.9597 10.3475 3.09798 11.7831C2.81072 11.8533 2.67096 12.0718 2.77966 12.4306L3.7812 15.372Z" fill="#3062FF"/>
<path d="M30.1783 18.0636H0.893019C0.605755 18.0636 0.466003 18.243 0.466003 18.5629V21.6837C0.466003 21.9723 0.605755 22.1518 0.893019 22.1518H13.2841V31.3424C13.2841 31.631 13.4239 31.7715 13.7112 31.7715H17.3214C17.6397 31.7715 17.8182 31.631 17.8182 31.3424V22.1518H30.1783C30.4967 22.1518 30.6442 21.9723 30.6442 21.6837V18.5629C30.6442 18.243 30.5044 18.0636 30.1783 18.0636Z" fill="#3062FF"/>
<path d="M44.1766 9.739H50.1393C50.4576 9.739 50.6051 9.55956 50.6051 9.3099V6.11893C50.6051 5.86928 50.4653 5.68983 50.1393 5.68983H44.1378V1.63286C44.1378 1.3832 43.998 1.20376 43.672 1.20376H40.0618C39.7434 1.20376 39.5959 1.3832 39.5959 1.63286V5.68983H33.2063C32.888 5.68983 32.7404 5.86928 32.7404 6.11893V9.3099C32.7404 9.55956 32.8802 9.739 33.2063 9.739H39.5649C39.2466 15.0833 36.2109 19.109 32.1737 22.3702C31.9252 22.5497 31.9252 22.9086 32.1349 23.127L34.2777 25.6392C34.4951 25.8187 34.7746 25.8187 35.0308 25.6392C38.1363 23.1972 40.6751 20.1857 41.995 17.5253C43.2061 19.9673 45.5663 22.6901 48.571 25.1009C48.8582 25.3193 49.1455 25.3193 49.3551 25.1009L51.4979 22.5887C51.7153 22.3702 51.7464 22.0894 51.4591 21.8709C47.8179 18.9608 44.5338 14.9428 44.1766 9.739Z" fill="#3062FF"/>
<path d="M62.4295 11.8533H57.8954V0.688832C57.8954 0.400163 57.7556 0.220718 57.3985 0.220718H53.7572C53.47 0.220718 53.3302 0.400163 53.3302 0.688832V31.3424C53.3302 31.631 53.47 31.7715 53.7572 31.7715H57.3985C57.7556 31.7715 57.8954 31.631 57.8954 31.3424V15.9103H62.4295C62.7866 15.9103 62.9263 15.7308 62.9263 15.4422V12.3214C62.9263 12.0015 62.7866 11.8533 62.4295 11.8533Z" fill="#3062FF"/>
<path d="M90.4648 0.228523H86.8546C86.5363 0.228523 86.3887 0.407965 86.3887 0.696634V31.3502C86.3887 31.6388 86.5285 31.7793 86.8546 31.7793H90.4648C90.8219 31.7793 90.9617 31.6388 90.9617 31.3502V0.696634C90.9617 0.407965 90.8219 0.228523 90.4648 0.228523Z" fill="#3062FF"/>
<path d="M76.1792 7.43745V3.52871C76.1792 3.27905 76.0395 3.09961 75.7522 3.09961H72.111C71.7927 3.09961 71.6451 3.27905 71.6451 3.52871V7.43745C71.6451 13.4293 68.5008 17.7359 64.2151 21.1843C63.9667 21.3638 63.9667 21.6837 64.1763 21.9021L66.3579 24.4143C66.5365 24.6328 66.8238 24.6328 67.111 24.4143C70.2554 21.9021 72.7165 18.9218 74.0364 16.3004C75.2476 18.7424 77.6466 21.5042 80.6435 23.9072C80.9307 24.0866 81.1792 24.0866 81.3965 23.9072L83.5394 21.395C83.7568 21.1765 83.7878 20.8567 83.5006 20.6382C79.7118 17.6267 76.1792 13.242 76.1792 7.42965V7.43745Z" fill="#3062FF"/>
<path d="M121.675 27.3946H105.604V21.0049C105.604 20.7162 105.465 20.5758 105.138 20.5758H101.497C101.179 20.5758 101.031 20.7162 101.031 21.0049V30.9835C101.031 31.2722 101.171 31.4516 101.497 31.4516H121.675C121.994 31.4516 122.141 31.2722 122.141 30.9835V27.8627C122.141 27.5429 122.002 27.3946 121.675 27.3946Z" fill="#3062FF"/>
<path d="M111.606 6.3998V2.84995C111.606 2.56128 111.497 2.42085 111.14 2.42085H97.5687C97.2504 2.42085 97.1029 2.56128 97.1029 2.84995V5.93949C97.1029 6.22816 97.2426 6.4076 97.5687 6.4076H107.002V6.69627C107.002 10.3944 103.392 13.047 96.3187 15.3797C96.0315 15.4188 95.8529 15.6684 96.0004 15.9883L97.1106 18.9296C97.2193 19.2183 97.4678 19.2495 97.7861 19.1793C106.536 16.4486 111.606 12.6491 111.606 6.3998Z" fill="#3062FF"/>
<path d="M125.495 8.80277H120.961V0.688832C120.961 0.400163 120.822 0.220718 120.464 0.220718H116.823C116.536 0.220718 116.396 0.400163 116.396 0.688832V22.7993C116.396 23.088 116.536 23.2284 116.823 23.2284H120.464C120.822 23.2284 120.961 23.088 120.961 22.7993V12.8597H125.495C125.853 12.8597 125.992 12.7193 125.992 12.3916V9.30209C125.992 8.98222 125.853 8.80277 125.495 8.80277Z" fill="#3062FF"/>
</svg>
