<svg width="84" height="86" viewBox="0 0 84 86" fill="none" xmlns="http://www.w3.org/2000/svg">
<path d="M40.449 34.7495L52.9114 42.9493C53.3191 43.2145 53.7884 43.355 54.273 43.355C55.1269 43.355 55.9116 42.9259 56.3732 42.2003C56.7347 41.6308 56.8578 40.952 56.7193 40.2888C56.5809 39.6257 56.1962 39.0561 55.6346 38.6895L44.3108 31.2387V15.7832C44.3108 14.3866 43.1876 13.2476 41.8106 13.2476C40.4336 13.2476 39.3104 14.3866 39.3104 15.7832V32.6196C39.3104 33.4856 39.7335 34.2736 40.449 34.7495Z" fill="#3062FF"/>
<path d="M64.7045 50.9306C67.1893 45.9842 71.0896 37.0433 71.0896 29.7017C71.0896 13.3178 57.9579 0 41.8106 0C25.6633 0 12.5316 13.3178 12.5316 29.6939C12.5316 37.0433 16.4319 45.9842 18.9167 50.9228C6.8851 54.379 0 60.2148 0 66.979C0 77.652 18.3628 86.0078 41.8106 86.0078C65.2584 86.0078 83.6212 77.652 83.6212 66.979C83.6212 60.2148 76.7361 54.3868 64.7045 50.9306ZM17.532 29.7017C17.532 16.1265 28.4251 5.07902 41.8106 5.07902C55.1962 5.07902 66.0892 16.1265 66.0892 29.7017C66.0892 44.3536 48.0111 70.7083 41.8106 70.7083C39.3489 70.7083 33.4485 65.4655 27.3635 55.7365C21.3938 46.1949 17.532 35.9744 17.532 29.6939V29.7017ZM68.651 76.3023C61.5197 79.2904 51.9883 80.9366 41.8106 80.9366C31.633 80.9366 22.1015 79.2904 14.9703 76.3023C8.63137 73.6418 5.00035 70.248 5.00035 66.9868C5.00035 62.6646 11.4162 58.1785 21.3784 55.5181C21.9631 56.5323 22.5554 57.5232 23.1401 58.4594C25.6864 62.5242 34.5486 75.7873 41.8106 75.7873C49.0727 75.7873 57.9425 62.5242 60.4812 58.4594C61.0735 57.5154 61.6659 56.5245 62.2428 55.5181C72.2051 58.1785 78.6209 62.6646 78.6209 66.9868C78.6209 70.248 74.9899 73.6496 68.651 76.3023Z" fill="#3062FF"/>
</svg>
