<svg width="229" height="38" viewBox="0 0 229 38" fill="none" xmlns="http://www.w3.org/2000/svg">
<path d="M11.4232 9.0097C8.74611 9.0097 6.51519 10.141 5.13817 12.0602L5.02278 9.87571C5.02278 9.54023 4.79968 9.38419 4.49966 9.38419H1.00711C0.707093 9.38419 0.522461 9.57144 0.522461 9.87571V36.6439C0.522461 36.9482 0.707093 37.1354 1.00711 37.1354H4.87662C5.17664 37.1354 5.36127 36.9482 5.36127 36.6439V26.5405C6.77675 28.2725 8.89228 29.2946 11.4232 29.2946C16.9236 29.2946 20.4162 25.144 20.4162 19.1521C20.4162 13.1603 16.9236 9.0097 11.4232 9.0097ZM10.2308 24.8475C7.146 24.8475 5.02278 22.5069 5.02278 19.1521C5.02278 15.7973 7.13831 13.4568 10.2308 13.4568C13.3234 13.4568 15.4389 15.7973 15.4389 19.1521C15.4389 22.5069 13.3234 24.8475 10.2308 24.8475Z" fill="#3062FF"/>
<path d="M42.6484 9.38419H39.1559C38.8559 9.38419 38.6328 9.53243 38.6328 9.87571L38.5174 12.0602C37.1404 10.141 34.9094 9.0097 32.2323 9.0097C26.7319 9.0097 23.2394 13.1603 23.2394 19.1521C23.2394 25.144 26.7319 29.2946 32.2323 29.2946C34.9094 29.2946 37.1404 28.1633 38.5174 26.244L38.6328 28.4286C38.6328 28.764 38.8559 28.9201 39.1559 28.9201H42.6484C42.9485 28.9201 43.1331 28.7328 43.1331 28.4286V9.87571C43.1331 9.57144 42.9485 9.38419 42.6484 9.38419ZM33.4324 24.8397C30.3476 24.8397 28.2243 22.4991 28.2243 19.1443C28.2243 15.7895 30.3399 13.449 33.4324 13.449C36.5249 13.449 38.6405 15.7895 38.6405 19.1443C38.6405 22.4991 36.5249 24.8397 33.4324 24.8397Z" fill="#3062FF"/>
<path d="M59.9727 9.23597C59.6034 9.15795 59.2265 9.12674 58.6726 9.12674C56.3648 9.12674 54.1031 10.219 52.7953 12.3333L52.6799 9.88352C52.6799 9.54804 52.4568 9.392 52.1568 9.392H48.6642C48.3642 9.392 48.1796 9.57925 48.1796 9.88352V28.4364C48.1796 28.7406 48.3642 28.9279 48.6642 28.9279H52.5337C52.8337 28.9279 53.0184 28.7406 53.0184 28.4364V18.8245C53.0184 15.7349 55.4724 13.9249 58.0726 13.9249C58.8188 13.9249 59.3727 14.0419 59.8573 14.0731C60.1881 14.1121 60.3804 13.9951 60.3804 13.6596V9.7743C60.3804 9.50903 60.265 9.32179 59.9727 9.24377V9.23597Z" fill="#3062FF"/>
<path d="M74.8738 16.3981L81.305 9.98495C81.6051 9.68067 81.4512 9.3842 81.0435 9.3842H76.0585C75.8354 9.3842 75.6508 9.46222 75.4662 9.64947L68.4734 16.9988V1.12982C68.4734 0.82555 68.2887 0.638306 67.9887 0.638306H64.1192C63.8192 0.638306 63.6346 0.82555 63.6346 1.12982V28.4286C63.6346 28.7328 63.8192 28.9201 64.1192 28.9201H67.9887C68.2887 28.9201 68.4734 28.7328 68.4734 28.4286V22.7722L71.3736 19.9089L76.5816 28.5768C76.697 28.8031 76.8817 28.9123 77.1355 28.9123H81.7435C82.1128 28.9123 82.2282 28.647 82.0436 28.3115L74.8661 16.3981H74.8738Z" fill="#3062FF"/>
<path d="M88.144 0.490067C86.5439 0.490067 85.3207 1.58233 85.3207 3.20512C85.3207 4.82791 86.5515 5.92017 88.144 5.92017C89.7364 5.92017 90.9672 4.82791 90.9672 3.20512C90.9672 1.58233 89.7441 0.490067 88.144 0.490067Z" fill="#3062FF"/>
<path d="M86.213 9.3842H90.0825C90.3518 9.3842 90.5672 9.60265 90.5672 9.87572V28.4286C90.5672 28.7016 90.3518 28.9201 90.0825 28.9201H86.213C85.9438 28.9201 85.7284 28.7016 85.7284 28.4286V9.87572C85.7284 9.60265 85.9438 9.3842 86.213 9.3842Z" fill="#3062FF"/>
<path d="M106.507 9.0097C104.053 9.0097 101.637 10.0239 100.222 12.0992L100.106 9.87571C100.106 9.54023 99.8832 9.38419 99.5832 9.38419H96.0907C95.7906 9.38419 95.606 9.57144 95.606 9.87571V28.4286C95.606 28.7328 95.7906 28.9201 96.0907 28.9201H99.9602C100.26 28.9201 100.445 28.7328 100.445 28.4286V18.9649C100.445 15.2356 102.676 13.4568 105.014 13.4568C107.545 13.4568 108.692 14.9625 108.692 18.2081V28.4286C108.692 28.7328 108.876 28.9201 109.176 28.9201H113.046C113.346 28.9201 113.53 28.7328 113.53 28.4286V16.2108C113.53 11.7248 110.969 9.0097 106.507 9.0097Z" fill="#3062FF"/>
<path d="M136.732 9.38419H133.239C132.939 9.38419 132.716 9.53243 132.716 9.87571L132.601 12.0602C131.224 10.141 128.993 9.0097 126.316 9.0097C120.815 9.0097 117.323 13.1603 117.323 19.1521C117.323 25.144 120.815 29.2946 126.316 29.2946C128.847 29.2946 130.962 28.2803 132.378 26.5405V28.3115C132.378 31.7834 129.847 33.0629 126.877 33.0629C124.277 33.0629 122.785 32.0096 121.862 30.3868C121.716 30.1216 121.492 30.0123 121.231 30.1216L118.108 31.2918C117.808 31.4011 117.7 31.5961 117.846 31.8926C119.331 35.6219 122.9 37.5099 127.031 37.5099C133.093 37.5099 137.217 34.0381 137.217 27.82V9.87571C137.217 9.57144 137.032 9.38419 136.732 9.38419ZM127.508 24.8397C124.423 24.8397 122.3 22.4991 122.3 19.1443C122.3 15.7895 124.416 13.449 127.508 13.449C130.601 13.449 132.716 15.7895 132.716 19.1443C132.716 22.4991 130.601 24.8397 127.508 24.8397Z" fill="#3062FF"/>
<path d="M163.495 24.9957L160.595 23.6772C160.295 23.529 160.072 23.6382 159.926 23.9035C159.557 24.5822 159.111 24.8475 158.48 24.8475C156.995 24.8475 156.326 23.7943 156.326 21.6799V13.761H160.895C161.195 13.761 161.38 13.5738 161.38 13.2695V9.87572C161.38 9.57144 161.195 9.3842 160.895 9.3842H156.326V4.14134C156.326 3.83707 156.141 3.64983 155.841 3.64983H151.972C151.672 3.64983 151.487 3.83707 151.487 4.14134V9.3842H148.664C148.364 9.3842 148.179 9.57144 148.179 9.87572V13.2695C148.179 13.5738 148.364 13.761 148.664 13.761H151.487V21.3757C151.487 26.6575 153.795 29.2946 157.957 29.2946C160.149 29.2946 162.272 28.3505 163.642 25.7915C163.865 25.417 163.788 25.1518 163.495 25.0035V24.9957Z" fill="#3062FF"/>
<path d="M166.834 9.3842H170.704C170.973 9.3842 171.188 9.60265 171.188 9.87572V28.4286C171.188 28.7016 170.973 28.9201 170.704 28.9201H166.834C166.565 28.9201 166.349 28.7016 166.349 28.4286V9.87572C166.349 9.60265 166.565 9.3842 166.834 9.3842Z" fill="#3062FF"/>
<path d="M168.773 0.490067C167.173 0.490067 165.949 1.58233 165.949 3.20512C165.949 4.82791 167.173 5.92017 168.773 5.92017C170.373 5.92017 171.596 4.82791 171.596 3.20512C171.596 1.58233 170.373 0.490067 168.773 0.490067Z" fill="#3062FF"/>
<path d="M199.59 9.0097C196.952 9.0097 194.421 10.219 193.013 12.5908C191.974 10.2892 189.851 9.0097 186.951 9.0097C184.574 9.0097 182.227 10.102 180.85 12.2163L180.743 9.87571C180.743 9.54023 180.52 9.38419 180.22 9.38419H176.727C176.427 9.38419 176.242 9.57144 176.242 9.87571V28.4286C176.242 28.7328 176.427 28.9201 176.727 28.9201H180.597C180.897 28.9201 181.081 28.7328 181.081 28.4286V18.9649C181.081 15.2356 183.197 13.4568 185.466 13.4568C187.736 13.4568 188.889 14.9625 188.889 18.2081V28.4286C188.889 28.7328 189.074 28.9201 189.374 28.9201H193.244C193.544 28.9201 193.728 28.7328 193.728 28.4286V18.9649C193.728 15.2356 195.844 13.4568 198.113 13.4568C200.383 13.4568 201.537 14.9625 201.537 18.2081V28.4286C201.537 28.7328 201.721 28.9201 202.021 28.9201H205.891C206.191 28.9201 206.375 28.7328 206.375 28.4286V16.2108C206.375 11.7248 203.814 9.0097 199.606 9.0097H199.59Z" fill="#3062FF"/>
<path d="M219.884 9.0097C213.822 9.0097 210.145 13.2305 210.145 19.1521C210.145 25.0738 213.822 29.2946 219.884 29.2946C223.453 29.2946 226.654 27.7498 228.361 24.317C228.508 24.0127 228.4 23.7864 228.1 23.6772L224.792 22.5069C224.53 22.4289 224.307 22.4679 224.161 22.7332C223.269 24.1999 221.892 24.9567 219.922 24.9567C217.361 24.9567 215.722 23.3339 215.276 20.6579H228.477C228.777 20.6579 228.962 20.5097 229 20.1664C229.185 13.4568 225.8 9.0097 219.892 9.0097H219.884ZM215.345 16.9988C215.938 14.6583 217.576 13.3397 219.846 13.3397C221.93 13.3397 223.377 14.6973 223.823 16.9988H215.345Z" fill="#3062FF"/>
</svg>
