<svg width="233" height="140" viewBox="0 0 233 140" fill="none" xmlns="http://www.w3.org/2000/svg">
<g clip-path="url(#clip0_2_6)">
<path d="M115.111 35.063L127.821 43.3367C128.237 43.6044 128.716 43.7461 129.21 43.7461C130.081 43.7461 130.881 43.3131 131.352 42.581C131.721 42.0063 131.846 41.3214 131.705 40.6523C131.564 39.9831 131.171 39.4085 130.599 39.0385L119.05 31.5205V15.9255C119.05 14.5164 117.904 13.3671 116.5 13.3671C115.096 13.3671 113.95 14.5164 113.95 15.9255V32.9139C113.95 33.7877 114.382 34.5828 115.111 35.063Z" fill="#3062FF"/>
<path d="M139.849 51.39C142.383 46.399 146.36 37.3774 146.36 29.9696C146.36 13.4458 132.968 0.00787354 116.5 0.00787354C100.032 0.00787354 86.6394 13.4458 86.6394 29.9696C86.6394 37.3853 90.6172 46.4069 93.1513 51.39C80.8807 54.8774 73.8589 60.758 73.8589 67.5832C73.8589 78.3524 92.5864 86.7836 116.5 86.7836C140.414 86.7836 159.141 78.3524 159.141 67.5832C159.141 60.758 152.119 54.8774 139.849 51.39ZM91.7391 29.9696C91.7391 16.2719 102.849 5.12483 116.5 5.12483C130.151 5.12483 141.261 16.2719 141.261 29.9696C141.261 44.7537 122.824 71.3462 116.5 71.3462C113.989 71.3462 107.972 66.056 101.766 56.2393C95.6776 46.6116 91.7391 36.2989 91.7391 29.9618V29.9696ZM143.873 76.9906C136.601 80.0056 126.88 81.6667 116.5 81.6667C106.12 81.6667 96.3994 80.0056 89.1265 76.9906C82.6617 74.3061 78.9586 70.8817 78.9586 67.5911C78.9586 63.2299 85.5018 58.7033 95.6619 56.0189C96.2582 57.0423 96.8623 58.0421 97.4586 58.9867C100.055 63.0882 109.094 76.471 116.5 76.471C123.906 76.471 132.952 63.0882 135.541 58.9867C136.145 58.0342 136.75 57.0344 137.338 56.0189C147.498 58.7033 154.041 63.2299 154.041 67.5911C154.041 70.8817 150.338 74.314 143.873 76.9906Z" fill="#3062FF"/>
<path d="M11.1094 111.243C8.37915 111.243 6.10391 112.384 4.69954 114.321L4.58186 112.117C4.58186 111.778 4.35433 111.621 4.04835 111.621H0.494276C0.188296 111.621 0 111.809 0 112.117V139.126C0 139.433 0.188296 139.622 0.494276 139.622H4.44064C4.74662 139.622 4.93491 139.433 4.93491 139.126V128.932C6.37851 130.679 8.53606 131.711 11.1173 131.711C16.7269 131.711 20.2888 127.522 20.2888 121.477C20.2888 115.431 16.7269 111.243 11.1173 111.243H11.1094ZM9.89336 127.223C6.74726 127.223 4.58186 124.862 4.58186 121.477C4.58186 118.092 6.73941 115.73 9.89336 115.73C13.0473 115.73 15.2049 118.092 15.2049 121.477C15.2049 124.862 13.0473 127.223 9.89336 127.223Z" fill="#3062FF"/>
<path d="M42.9549 111.621H39.393C39.087 111.621 38.8595 111.77 38.8595 112.117L38.7418 114.321C37.3374 112.384 35.0622 111.243 32.3319 111.243C26.7223 111.243 23.1603 115.431 23.1603 121.477C23.1603 127.522 26.7223 131.711 32.3319 131.711C35.0622 131.711 37.3374 130.569 38.7418 128.632L38.8595 130.837C38.8595 131.175 39.087 131.333 39.393 131.333H42.9549C43.2609 131.333 43.4492 131.144 43.4492 130.837V112.117C43.4492 111.809 43.2609 111.621 42.9549 111.621ZM33.5558 127.215C30.4097 127.215 28.2443 124.854 28.2443 121.469C28.2443 118.084 30.4019 115.722 33.5558 115.722C36.7098 115.722 38.8673 118.084 38.8673 121.469C38.8673 124.854 36.7098 127.215 33.5558 127.215Z" fill="#3062FF"/>
<path d="M60.6155 111.471C60.2389 111.392 59.8544 111.361 59.2895 111.361C56.9358 111.361 54.6292 112.463 53.2955 114.596L53.1778 112.124C53.1778 111.786 52.9503 111.628 52.6443 111.628H49.0824C48.7764 111.628 48.5881 111.817 48.5881 112.124V130.845C48.5881 131.152 48.7764 131.341 49.0824 131.341H53.0287C53.3347 131.341 53.523 131.152 53.523 130.845V121.146C53.523 118.029 56.0257 116.202 58.6776 116.202C59.4386 116.202 60.0035 116.32 60.4978 116.352C60.8351 116.391 61.0313 116.273 61.0313 115.935V112.014C61.0313 111.747 60.9136 111.558 60.6155 111.479V111.471Z" fill="#3062FF"/>
<path d="M75.8203 118.698L82.3793 112.227C82.6853 111.92 82.5284 111.621 82.1126 111.621H77.0286C76.801 111.621 76.6128 111.699 76.4245 111.888L69.2928 119.304V103.292C69.2928 102.985 69.1045 102.796 68.7985 102.796H64.8521C64.5461 102.796 64.3578 102.985 64.3578 103.292V130.837C64.3578 131.144 64.5461 131.333 64.8521 131.333H68.7985C69.1045 131.333 69.2928 131.144 69.2928 130.837V125.129L72.2506 122.24L77.5621 130.986C77.6798 131.215 77.8681 131.325 78.127 131.325H82.8265C83.2031 131.325 83.3208 131.057 83.1325 130.719L75.8125 118.698H75.8203Z" fill="#3062FF"/>
<path d="M89.3541 102.646C87.7222 102.646 86.4747 103.748 86.4747 105.386C86.4747 107.023 87.73 108.125 89.3541 108.125C90.9781 108.125 92.2334 107.023 92.2334 105.386C92.2334 103.748 90.986 102.646 89.3541 102.646Z" fill="#3062FF"/>
<path d="M87.3848 111.621H91.3312C91.6058 111.621 91.8254 111.841 91.8254 112.117V130.837C91.8254 131.112 91.6058 131.333 91.3312 131.333H87.3848C87.1102 131.333 86.8905 131.112 86.8905 130.837V112.117C86.8905 111.841 87.1102 111.621 87.3848 111.621Z" fill="#3062FF"/>
<path d="M108.082 111.243C105.579 111.243 103.115 112.266 101.672 114.36L101.554 112.117C101.554 111.778 101.327 111.621 101.021 111.621H97.4586C97.1526 111.621 96.9643 111.809 96.9643 112.117V130.837C96.9643 131.144 97.1526 131.333 97.4586 131.333H101.405C101.711 131.333 101.899 131.144 101.899 130.837V121.288C101.899 117.525 104.174 115.73 106.56 115.73C109.141 115.73 110.31 117.249 110.31 120.524V130.837C110.31 131.144 110.498 131.333 110.804 131.333H114.75C115.056 131.333 115.245 131.144 115.245 130.837V118.509C115.245 113.982 112.632 111.243 108.082 111.243Z" fill="#3062FF"/>
<path d="M138.899 111.621H135.337C135.031 111.621 134.804 111.77 134.804 112.117L134.686 114.321C133.282 112.384 131.007 111.243 128.276 111.243C122.667 111.243 119.105 115.431 119.105 121.477C119.105 127.522 122.667 131.711 128.276 131.711C130.858 131.711 133.015 130.687 134.459 128.932V130.719C134.459 134.222 131.877 135.513 128.849 135.513C126.197 135.513 124.675 134.45 123.734 132.813C123.585 132.545 123.357 132.435 123.09 132.545L119.905 133.726C119.599 133.836 119.489 134.033 119.638 134.332C121.152 138.095 124.793 140 129.006 140C135.188 140 139.394 136.497 139.394 130.223V112.117C139.394 111.809 139.205 111.621 138.899 111.621ZM129.492 127.215C126.346 127.215 124.181 124.854 124.181 121.469C124.181 118.084 126.338 115.722 129.492 115.722C132.646 115.722 134.804 118.084 134.804 121.469C134.804 124.854 132.646 127.215 129.492 127.215Z" fill="#3062FF"/>
<path d="M166.194 127.373L163.237 126.043C162.931 125.893 162.703 126.003 162.554 126.271C162.177 126.956 161.722 127.223 161.079 127.223C159.565 127.223 158.882 126.161 158.882 124.027V116.037H163.542C163.848 116.037 164.037 115.848 164.037 115.541V112.117C164.037 111.81 163.848 111.621 163.542 111.621H158.882V106.33C158.882 106.023 158.694 105.834 158.388 105.834H154.442C154.136 105.834 153.947 106.023 153.947 106.33V111.621H151.068C150.762 111.621 150.574 111.81 150.574 112.117V115.541C150.574 115.848 150.762 116.037 151.068 116.037H153.947V123.72C153.947 129.05 156.301 131.711 160.545 131.711C162.781 131.711 164.947 130.758 166.343 128.176C166.571 127.798 166.492 127.53 166.194 127.381V127.373Z" fill="#3062FF"/>
<path d="M169.607 111.621H173.554C173.828 111.621 174.048 111.841 174.048 112.117V130.837C174.048 131.112 173.828 131.333 173.554 131.333H169.607C169.333 131.333 169.113 131.112 169.113 130.837V112.117C169.113 111.841 169.333 111.621 169.607 111.621Z" fill="#3062FF"/>
<path d="M171.576 102.646C169.945 102.646 168.697 103.748 168.697 105.386C168.697 107.023 169.945 108.125 171.576 108.125C173.208 108.125 174.456 107.023 174.456 105.386C174.456 103.748 173.208 102.646 171.576 102.646Z" fill="#3062FF"/>
<path d="M203.006 111.243C200.315 111.243 197.734 112.463 196.298 114.856C195.239 112.534 193.074 111.243 190.116 111.243C187.691 111.243 185.298 112.345 183.894 114.478L183.784 112.117C183.784 111.778 183.557 111.621 183.251 111.621H179.689C179.383 111.621 179.195 111.809 179.195 112.117V130.837C179.195 131.144 179.383 131.333 179.689 131.333H183.635C183.941 131.333 184.129 131.144 184.129 130.837V121.288C184.129 117.525 186.287 115.73 188.601 115.73C190.916 115.73 192.093 117.249 192.093 120.524V130.837C192.093 131.144 192.281 131.333 192.587 131.333H196.533C196.839 131.333 197.028 131.144 197.028 130.837V121.288C197.028 117.525 199.185 115.73 201.5 115.73C203.814 115.73 204.991 117.249 204.991 120.524V130.837C204.991 131.144 205.179 131.333 205.485 131.333H209.432C209.738 131.333 209.926 131.144 209.926 130.837V118.509C209.926 113.982 207.313 111.243 203.022 111.243H203.006Z" fill="#3062FF"/>
<path d="M223.703 111.243C217.521 111.243 213.77 115.502 213.77 121.477C213.77 127.452 217.521 131.711 223.703 131.711C227.343 131.711 230.607 130.152 232.349 126.688C232.498 126.381 232.388 126.153 232.082 126.043L228.708 124.862C228.442 124.783 228.214 124.822 228.065 125.09C227.155 126.57 225.751 127.334 223.742 127.334C221.13 127.334 219.458 125.696 219.003 122.996H232.466C232.772 122.996 232.961 122.846 233 122.5C233.188 115.73 229.736 111.243 223.711 111.243H223.703ZM219.074 119.304C219.678 116.942 221.349 115.612 223.664 115.612C225.79 115.612 227.265 116.982 227.72 119.304H219.074Z" fill="#3062FF"/>
</g>
<defs>
<clipPath id="clip0_2_6">
<rect width="233" height="140" fill="white"/>
</clipPath>
</defs>
</svg>
