<svg width="24" height="24" viewBox="0 0 24 24" fill="none" xmlns="http://www.w3.org/2000/svg">
<path d="M12 2C10.6261 2 9.33021 2.26573 8.11241 2.79719C6.89461 3.31301 5.83294 4.02423 4.9274 4.93083C4.02186 5.83744 3.30367 6.90035 2.77283 8.11958C2.25761 9.32317 2 10.6127 2 11.9883C2 13.3794 2.25761 14.6846 2.77283 15.9039C3.30367 17.1075 4.02186 18.1626 4.9274 19.0692C5.83294 19.9758 6.89461 20.6948 8.11241 21.2263C9.33021 21.7421 10.6261 22 12 22C13.3739 22 14.6698 21.7421 15.8876 21.2263C17.1054 20.6948 18.1671 19.9758 19.0726 19.0692C19.9781 18.1626 20.6885 17.1075 21.2037 15.9039C21.7346 14.6846 22 13.3794 22 11.9883C22 10.6127 21.7346 9.32317 21.2037 8.11958C20.6885 6.90035 19.9781 5.83744 19.0726 4.93083C18.1671 4.02423 17.1054 3.31301 15.8876 2.79719C14.6698 2.26573 13.3739 2 12 2ZM10.993 15.9977L7.01171 11.9883L8.41686 10.5815L11.0164 13.1841L15.6066 8.56506L16.9883 9.99531L10.993 15.9977Z" fill="#222222"/>
</svg>
