<svg width="24" height="24" viewBox="0 0 24 24" fill="none" xmlns="http://www.w3.org/2000/svg">
<path d="M21.9959 11.8738C21.998 11.3167 21.7688 10.7835 21.3622 10.4027L12.743 2.331C12.364 1.909 11.636 1.909 11.257 2.331L2.63291 10.4073C2.22913 10.7854 2 11.3129 2 11.8661C2.00001 14.3916 2.00001 18.0293 2.00001 21C2.00001 21.2652 2.10537 21.5196 2.29291 21.7071C2.48044 21.8946 2.7348 22 3.00001 22H9.00001C9.26523 22 9.51958 21.8946 9.70712 21.7071C9.89465 21.5196 10 21.2652 10 21V17H14V21C14 21.2652 14.1054 21.5196 14.2929 21.7071C14.4804 21.8946 14.7348 22 15 22H21C21.2652 22 21.5196 21.8946 21.7071 21.7071C21.8947 21.5196 22 21.2652 22 21C22 17.9579 21.9844 14.9158 21.9959 11.8738Z" fill="#222222"/>
</svg>
