<svg width="24" height="24" viewBox="0 0 24 24" fill="none" xmlns="http://www.w3.org/2000/svg">
<path fill-rule="evenodd" clip-rule="evenodd" d="M8.90244 4.63457L8.89247 4.63879C7.90417 5.05741 7.06001 5.62581 6.34244 6.34422C5.62175 7.06576 5.04358 7.91606 4.60906 8.91225C4.20724 9.85303 4 10.8716 4 11.9883C4 13.1203 4.20719 14.1547 4.60911 15.1112C5.04228 16.0888 5.61965 16.9321 6.34244 17.6558C7.06208 18.3763 7.90973 18.9542 8.90234 19.3888C9.86093 19.7933 10.8873 20 12 20C13.1127 20 14.1391 19.7933 15.0977 19.3888C16.0903 18.9542 16.9379 18.3763 17.6576 17.6558C18.3794 16.9331 18.9478 16.0918 19.3651 15.1168L19.37 15.1055L19.37 15.1055C19.7861 14.1497 20 13.1177 20 11.9883C20 10.8777 19.7874 9.86436 19.3738 8.92665L19.3675 8.91242L19.3615 8.89808C18.9431 7.90804 18.3751 7.06264 17.6576 6.34422C16.94 5.62581 16.0958 5.05741 15.1075 4.63879L15.0976 4.63457L15.0876 4.63023C14.1308 4.21266 13.1082 4 12 4C10.8918 4 9.8692 4.21266 8.91237 4.63023L8.90244 4.63457ZM15.8876 21.2263C14.6698 21.7421 13.3739 22 12 22C10.6261 22 9.33021 21.7421 8.11241 21.2263C6.89461 20.6948 5.83294 19.9758 4.9274 19.0692C4.02186 18.1626 3.30367 17.1075 2.77283 15.9039C2.25761 14.6846 2 13.3794 2 11.9883C2 10.6127 2.25761 9.32317 2.77283 8.11958C3.30367 6.90035 4.02186 5.83744 4.9274 4.93083C5.83294 4.02423 6.89461 3.31301 8.11241 2.79719C9.33021 2.26573 10.6261 2 12 2C13.3739 2 14.6698 2.26573 15.8876 2.79719C17.1054 3.31301 18.1671 4.02423 19.0726 4.93083C19.9781 5.83744 20.6885 6.90035 21.2037 8.11958C21.7346 9.32317 22 10.6127 22 11.9883C22 13.3794 21.7346 14.6846 21.2037 15.9039C20.6885 17.1075 19.9781 18.1626 19.0726 19.0692C18.1671 19.9758 17.1054 20.6948 15.8876 21.2263Z" fill="#222222"/>
</svg>
