<svg width="24" height="24" viewBox="0 0 24 24" fill="none" xmlns="http://www.w3.org/2000/svg">
<path d="M13.5 9H10.5V11H13.5C13.7652 11 14.0196 10.8946 14.2071 10.7071C14.3946 10.5196 14.5 10.2652 14.5 10C14.5 9.73478 14.3946 9.48043 14.2071 9.29289C14.0196 9.10536 13.7652 9 13.5 9Z" fill="#222222"/>
<path d="M12 2C10.0222 2 8.08879 2.58649 6.4443 3.6853C4.79981 4.78412 3.51809 6.3459 2.76121 8.17317C2.00433 10.0004 1.8063 12.0111 2.19215 13.9509C2.578 15.8907 3.53041 17.6725 4.92894 19.0711C6.32746 20.4696 8.10929 21.422 10.0491 21.8079C11.9889 22.1937 13.9996 21.9957 15.8268 21.2388C17.6541 20.4819 19.2159 19.2002 20.3147 17.5557C21.4135 15.9112 22 13.9778 22 12C22 10.6868 21.7413 9.38642 21.2388 8.17317C20.7363 6.95991 19.9997 5.85752 19.0711 4.92893C18.1425 4.00035 17.0401 3.26375 15.8268 2.7612C14.6136 2.25866 13.3132 2 12 2ZM11.96 13C10.42 13 10.5 13 10.5 13V16.5C10.5 16.7761 10.2761 17 10 17H9C8.72386 17 8.5 16.7761 8.5 16.5V7.5C8.5 7.22386 8.72386 7 9 7H13.5C14.218 7.01164 14.908 7.28044 15.4446 7.75755C15.9813 8.23466 16.329 8.88845 16.4246 9.60013C16.5203 10.3118 16.3574 11.0342 15.9657 11.636C15.8183 11.8626 15.642 12.0665 15.4428 12.2433C14.7815 12.8302 13.8503 12.9476 12.9668 12.9815C12.6777 12.9926 12.3419 13 11.96 13Z" fill="#222222"/>
</svg>
